<svg width="1em" height="1em" fill="currentColor" viewBox="0 0 16 16" class="bi bi-pikto-logo" xmlns="http://www.w3.org/2000/svg">
  <path d="M34.199 0H9.975C4.475 0 0 4.475 0 9.976v17.598a12.814 12.814 0 018.55-4.694V9.976c0-.788.638-1.426 1.425-1.426h24.224c4.715 0 8.55 3.836 8.55 8.55s-3.835 8.55-8.55 8.55H9.975c-.485 0-.961.034-1.425.103C3.722 26.445 0 30.609 0 35.625v11.4C0 52.525 4.475 57 9.975 57h11.399c5.5 0 9.976-4.475 9.976-9.975V37.05H22.8v9.975c0 .787-.64 1.425-1.426 1.425h-11.4a1.425 1.425 0 01-1.424-1.425v-11.4c0-.787.638-1.425 1.425-1.425h24.224c9.43 0 17.1-7.671 17.1-17.1C51.3 7.671 43.63 0 34.2 0"/>
</svg>