<svg class="bi bi-pikto-idea" width="1em" height="1em" viewBox="0 0 16 16" fill="currentColor" xmlns="http://www.w3.org/2000/svg">
  <path fill-rule="evenodd" d="M370.73 297.05A135.492 135.492 0 00392 224c0-74.99-61.01-136-136-136s-136 61.01-136 136a136.025 136.025 0 0072 120.03V376h-8a8 8 0 00-8 8v16h-8a8 8 0 00-8 8v24a8 8 0 008 8h8v16a8 8 0 008 8h8a40.04 40.04 0 0040 40h48a40.04 40.04 0 0040-40h8a8 8 0 008-8v-16h8a8 8 0 008-8v-24a8 8 0 00-8-8h-8v-16a8 8 0 00-8-8h-8v-31.97a136.39 136.39 0 0050.73-46.98zM192 392h128v8H192zm80-168v152h-32V224zm-32-16v-5.33l16-21.34 16 21.34V208zm40 280h-48a24.032 24.032 0 01-24-24h96a24.032 24.032 0 01-24 24zm40-40H192v-8h128zm16-32v8H176v-8zm-27.51-84.06a8.01 8.01 0 00-4.49 7.19V376h-16V200a7.982 7.982 0 00-1.6-4.8l-24-32a8 8 0 00-12.8 0l-24 32a7.982 7.982 0 00-1.6 4.8v176h-16v-36.87a8.01 8.01 0 00-4.49-7.19 120 120 0 11104.98 0z" clip-rule="evenodd"/>
  <path fill-rule="evenodd" d="M256 232a8 8 0 00-8 8v88a8 8 0 0016 0v-88a8 8 0 00-8-8zm0 112a8 8 0 00-8 8v8a8 8 0 0016 0v-8a8 8 0 00-8-8zm0-280a8 8 0 008-8V16a8 8 0 00-16 0v40a8 8 0 008 8zM88 216H48a8 8 0 000 16h40a8 8 0 000-16zm376 0h-40a8 8 0 000 16h40a8 8 0 000-16zM131.549 337.137l-28.284 28.284a8 8 0 0011.314 11.314l28.284-28.284a8 8 0 10-11.314-11.314zM397.421 71.265l-28.284 28.284a8 8 0 0011.314 11.314l28.284-28.284a8 8 0 00-11.314-11.314zm-265.872 39.598a8 8 0 1011.314-11.314l-28.284-28.284a8 8 0 00-11.314 11.314zm248.902 226.274a8 8 0 10-11.314 11.314l28.284 28.284a8 8 0 0011.314-11.314z" clip-rule="evenodd"/>
</svg>